<svg width="455" height="112" viewBox="0 0 455 112" fill="none" xmlns="http://www.w3.org/2000/svg">
<circle cx="56" cy="56.3301" r="55" fill="#FB5711"/>
<path d="M2.5 54.5C36.1715 42.9707 44.2834 30.5954 53.1694 1.33056C59.8357 32.7234 72.1735 44.4547 107 54.5C72.8975 61.2339 63.7409 72.6089 53.1694 107.669C42.2875 74.5008 35.4519 59.9584 2.5 54.5Z" fill="white"/>
<path d="M53.5 106.83C42.395 65.411 42.9306 41.3079 54 1.33008L2.5 54.5L53.5 106.83Z" fill="#FB5711" stroke="#FB5711"/>
<path d="M203.938 81.165H190.754L172.332 63.376C171.301 62.4385 170.82 61.2666 170.891 59.8604C170.938 59.2041 171.102 58.5947 171.383 58.0322C171.688 57.4463 172.098 56.9541 172.613 56.5557L189.312 43.0908H203.938L182.422 60.4229L203.938 81.165ZM168.57 81.165H159.43V27.0947H168.57V81.165ZM242.328 52.3018H221.762C220.52 52.3018 219.582 52.6182 218.949 53.251C218.316 53.8604 218 54.7627 218 55.958V81.165H208.859V55.958C208.859 54.3877 209.059 52.9814 209.457 51.7393C209.855 50.4971 210.383 49.4072 211.039 48.4697C211.719 47.5088 212.492 46.7002 213.359 46.0439C214.227 45.3643 215.129 44.8135 216.066 44.3916C217.027 43.9697 217.988 43.665 218.949 43.4775C219.934 43.2666 220.848 43.1611 221.691 43.1611H242.328V52.3018ZM257.656 35.3564H248.516V27.0947H257.656V35.3564ZM257.656 81.165H248.516V43.1611H257.656V81.165ZM311.797 43.1611C310.766 46.3721 309.559 49.5361 308.176 52.6533C306.793 55.7705 305.199 58.7471 303.395 61.583C301.613 64.3955 299.609 67.0088 297.383 69.4229C295.18 71.8135 292.73 73.8877 290.035 75.6455C287.363 77.3799 284.445 78.751 281.281 79.7588C278.141 80.7432 274.73 81.2354 271.051 81.2354C270.418 81.2354 269.82 81.1182 269.258 80.8838C268.695 80.6494 268.203 80.333 267.781 79.9346C267.359 79.5127 267.031 79.0322 266.797 78.4932C266.562 77.9307 266.445 77.333 266.445 76.7002V43.1611H275.586V71.7432C277.812 71.7432 279.945 71.2627 281.984 70.3018C284.047 69.3408 285.992 68.0752 287.82 66.5049C289.648 64.9111 291.336 63.1064 292.883 61.0908C294.453 59.0752 295.848 57.0127 297.066 54.9033C298.285 52.7705 299.316 50.6846 300.16 48.6455C301.027 46.6064 301.672 44.7783 302.094 43.1611H311.797ZM324.383 35.3564H315.242V27.0947H324.383V35.3564ZM324.383 81.165H315.242V43.1611H324.383V81.165ZM369.91 68.333C369.91 69.9033 369.711 71.3213 369.312 72.5869C368.914 73.8291 368.387 74.9307 367.73 75.8916C367.074 76.8291 366.312 77.6377 365.445 78.3174C364.578 78.9736 363.664 79.5127 362.703 79.9346C361.766 80.3564 360.805 80.6729 359.82 80.8838C358.859 81.0713 357.945 81.165 357.078 81.165H332.328V72.0244H357.008C358.25 72.0244 359.188 71.708 359.82 71.0752C360.453 70.4424 360.77 69.5283 360.77 68.333C360.652 65.8955 359.422 64.6768 357.078 64.6768H342.91C340.895 64.6768 339.184 64.3252 337.777 63.6221C336.371 62.9189 335.223 62.04 334.332 60.9854C333.465 59.9307 332.832 58.7939 332.434 57.5752C332.059 56.3564 331.871 55.2197 331.871 54.165C331.871 52.126 332.234 50.415 332.961 49.0322C333.688 47.626 334.602 46.4893 335.703 45.6221C336.805 44.7549 338 44.1338 339.289 43.7588C340.578 43.3604 341.785 43.1611 342.91 43.1611H365.375V52.3018H342.98C342.512 52.3018 342.137 52.3604 341.855 52.4775C341.598 52.5713 341.398 52.7119 341.258 52.8994C341.141 53.0635 341.07 53.251 341.047 53.4619C341.023 53.6494 341.012 53.8369 341.012 54.0244C341.035 54.3994 341.105 54.6924 341.223 54.9033C341.34 55.1143 341.48 55.2666 341.645 55.3604C341.832 55.4541 342.031 55.5127 342.242 55.5361C342.477 55.5361 342.699 55.5361 342.91 55.5361H357.078C359.422 55.5361 361.414 55.958 363.055 56.8018C364.695 57.6455 366.02 58.7119 367.027 60.001C368.035 61.2666 368.762 62.6494 369.207 64.1494C369.676 65.6494 369.91 67.0439 369.91 68.333ZM385.625 35.3564H376.484V27.0947H385.625V35.3564ZM385.625 81.165H376.484V43.1611H385.625V81.165ZM435.758 68.333C435.758 69.9033 435.559 71.3213 435.16 72.5869C434.762 73.8291 434.234 74.9307 433.578 75.8916C432.922 76.8291 432.16 77.6377 431.293 78.3174C430.426 78.9736 429.512 79.5127 428.551 79.9346C427.613 80.3564 426.652 80.6729 425.668 80.8838C424.707 81.0713 423.793 81.165 422.926 81.165H406.438C405.172 81.165 403.789 80.9424 402.289 80.4971C400.789 80.0518 399.395 79.3252 398.105 78.3174C396.84 77.2861 395.773 75.9619 394.906 74.3447C394.062 72.7041 393.641 70.7002 393.641 68.333V55.958C393.641 53.6143 394.062 51.6338 394.906 50.0166C395.773 48.376 396.84 47.0518 398.105 46.0439C399.395 45.0127 400.789 44.2744 402.289 43.8291C403.789 43.3838 405.172 43.1611 406.438 43.1611H422.926C425.27 43.1611 427.262 43.583 428.902 44.4268C430.543 45.2705 431.867 46.3369 432.875 47.626C433.883 48.8916 434.609 50.2744 435.055 51.7744C435.523 53.2744 435.758 54.6689 435.758 55.958V68.333ZM426.617 56.0283C426.617 54.7627 426.301 53.8252 425.668 53.2158C425.035 52.6064 424.121 52.3018 422.926 52.3018H406.508C405.289 52.3018 404.363 52.6182 403.73 53.251C403.098 53.8604 402.781 54.7627 402.781 55.958V68.333C402.781 69.5283 403.098 70.4424 403.73 71.0752C404.363 71.708 405.289 72.0244 406.508 72.0244H422.926C424.168 72.0244 425.094 71.708 425.703 71.0752C426.312 70.4424 426.617 69.5283 426.617 68.333V56.0283Z" fill="black"/>
<path d="M451.191 76.5596C451.191 77.1924 451.062 77.79 450.805 78.3525C450.57 78.8916 450.242 79.3721 449.82 79.7939C449.422 80.1924 448.941 80.5088 448.379 80.7432C447.84 80.9775 447.266 81.0947 446.656 81.0947C446.023 81.0947 445.426 80.9775 444.863 80.7432C444.324 80.5088 443.844 80.1924 443.422 79.7939C443.023 79.3721 442.707 78.8916 442.473 78.3525C442.238 77.79 442.121 77.1924 442.121 76.5596C442.121 75.9502 442.238 75.376 442.473 74.8369C442.707 74.2744 443.023 73.7939 443.422 73.3955C443.844 72.9736 444.324 72.6455 444.863 72.4111C445.426 72.1533 446.023 72.0244 446.656 72.0244C447.266 72.0244 447.84 72.1533 448.379 72.4111C448.941 72.6455 449.422 72.9736 449.82 73.3955C450.242 73.7939 450.57 74.2744 450.805 74.8369C451.062 75.376 451.191 75.9502 451.191 76.5596Z" fill="#FB5711"/>
</svg>
